<?xml version="1.0" encoding="utf-8"?>
<!-- Generator: Adobe Illustrator 19.0.0, SVG Export Plug-In . SVG Version: 6.00 Build 0)  -->
<svg version="1.1" id="Layer_1" xmlns="http://www.w3.org/2000/svg" xmlns:xlink="http://www.w3.org/1999/xlink" x="0px" y="0px"
	 viewBox="0 0 92.3 58.2" style="enable-background:new 0 0 92.3 58.2;" xml:space="preserve">
<style type="text/css">
	.st0{fill:none;stroke:#000000;stroke-miterlimit:10;}
</style>
<line id="XMLID_484_" class="st0" x1="2" y1="47.4" x2="16.3" y2="56.6"/>
<line id="XMLID_483_" class="st0" x1="2.1" y1="56.6" x2="15.8" y2="47"/>
<line id="XMLID_482_" class="st0" x1="15.6" y1="47.7" x2="15.1" y2="6.6"/>
<line id="XMLID_481_" class="st0" x1="27.1" y1="47.6" x2="41.4" y2="56.8"/>
<line id="XMLID_480_" class="st0" x1="27.2" y1="56.8" x2="40.9" y2="47.2"/>
<line id="XMLID_427_" class="st0" x1="40.8" y1="47.7" x2="40.3" y2="5.8"/>
<line id="XMLID_413_" class="st0" x1="51.6" y1="47.5" x2="65.9" y2="56.7"/>
<line id="XMLID_412_" class="st0" x1="51.7" y1="56.7" x2="65.4" y2="47.1"/>
<line id="XMLID_411_" class="st0" x1="65.2" y1="47.1" x2="64.7" y2="6"/>
<line id="XMLID_410_" class="st0" x1="76.7" y1="47.3" x2="91" y2="56.6"/>
<line id="XMLID_409_" class="st0" x1="76.8" y1="56.6" x2="90.5" y2="47"/>
<line id="XMLID_369_" class="st0" x1="90.4" y1="47.1" x2="89.9" y2="6"/>
<line id="XMLID_368_" class="st0" x1="15.1" y1="6.1" x2="89.9" y2="5.5"/>
<line id="XMLID_146_" class="st0" x1="15.1" y1="2.2" x2="15.1" y2="7.4"/>
<line id="XMLID_117_" class="st0" x1="89.9" y1="1.4" x2="89.9" y2="6.6"/>
<line id="XMLID_115_" class="st0" x1="15.1" y1="2.2" x2="90.1" y2="1.5"/>
</svg>
