<?xml version="1.0" encoding="utf-8"?>
<!-- Generator: Adobe Illustrator 19.0.0, SVG Export Plug-In . SVG Version: 6.00 Build 0)  -->
<svg version="1.1" id="Layer_1" xmlns="http://www.w3.org/2000/svg" xmlns:xlink="http://www.w3.org/1999/xlink" x="0px" y="0px"
	 viewBox="0 0 105 58.2" style="enable-background:new 0 0 105 58.2;" xml:space="preserve">
<style type="text/css">
	.st0{fill:none;stroke:#000000;stroke-miterlimit:10;}
	.st1{stroke:#000000;stroke-miterlimit:10;}
</style>
<line id="XMLID_182_" class="st0" x1="89.4" y1="10" x2="90.3" y2="55"/>
<line id="XMLID_181_" class="st0" x1="60.3" y1="9.2" x2="61.2" y2="55.2"/>
<ellipse id="XMLID_180_" transform="matrix(1 -3.669501e-003 3.669501e-003 1 -2.809696e-002 0.3529)" class="st1" cx="96.2" cy="7.8" rx="6.8" ry="6.5"/>
<ellipse id="XMLID_179_" transform="matrix(1 -3.669501e-003 3.669501e-003 1 -2.829446e-002 0.2453)" class="st1" cx="66.8" cy="7.8" rx="6.8" ry="6.5"/>
<line id="XMLID_178_" class="st0" x1="31.2" y1="9.7" x2="32.1" y2="54.7"/>
<line id="XMLID_177_" class="st0" x1="2.1" y1="10.3" x2="2.9" y2="55.3"/>
<ellipse id="XMLID_176_" transform="matrix(1 -3.669501e-003 3.669501e-003 1 -2.932114e-002 0.1387)" class="st1" cx="37.8" cy="8.1" rx="6.8" ry="6.5"/>
<ellipse id="XMLID_175_" transform="matrix(1 -3.669501e-003 3.669501e-003 1 -2.990924e-002 3.185732e-002)" class="st1" cx="8.7" cy="8.2" rx="6.8" ry="6.5"/>
<line id="XMLID_172_" class="st0" x1="90.3" y1="55.1" x2="2.9" y2="55.1"/>
</svg>
