<?xml version="1.0" encoding="utf-8"?>
<!-- Generator: Adobe Illustrator 19.0.0, SVG Export Plug-In . SVG Version: 6.00 Build 0)  -->
<svg version="1.1" id="Layer_1" xmlns="http://www.w3.org/2000/svg" xmlns:xlink="http://www.w3.org/1999/xlink" x="0px" y="0px"
	 viewBox="-327 339.9 267 76.5" style="enable-background:new -327 339.9 267 76.5;" xml:space="preserve">
<style type="text/css">
	.st0{fill:#FAFBE9;stroke:#FF3B3F;stroke-miterlimit:10;}
	.st1{fill:#FF3B3F;stroke:#FF3B3F;stroke-miterlimit:10;}
	.st2{font-family:'ArialMT';}
	.st3{font-size:48.54px;}
	.st4{font-size:62.43px;}
	.st5{fill:none;stroke:#FF3B3F;stroke-miterlimit:10;}
	.st6{stroke:#000000;stroke-miterlimit:10;}
	.st7{fill:none;stroke:#000000;stroke-miterlimit:10;}
</style>
<title>shwiftysvg</title>
<path class="st0" d="M-206.2,395.3v13.8"/>
<line class="st0" x1="-177.2" y1="409" x2="-206.7" y2="409"/>
<line class="st0" x1="-147.6" y1="409" x2="-177.1" y2="409"/>
<line class="st0" x1="-206.7" y1="395.3" x2="-177.2" y2="395.3"/>
<path class="st0" d="M-148.1,368.9c0.7,13.5,0.8,27.1,0.4,40.6"/>
<text transform="matrix(0.59 0 0 1 -322.2498 390.8902)" class="st1 st2 st3">Schw fty</text>
<text transform="matrix(0.44 0 0 1 -141.3301 395.0899)" class="st1 st2 st4">r</text>
<text transform="matrix(0.44 0 0 1 -132.4112 395.0899)" class="st1 st2 st4">o</text>
<text transform="matrix(0.44 0 0 1 -117.2975 395.0899)" class="st1 st2 st4">o</text>
<text transform="matrix(0.44 0 0 1 -102.3812 395.0899)" class="st1 st2 st4">v</text>
<text transform="matrix(0.44 0 0 1 -89.4408 395.0899)" class="st1 st2 st4">es</text>
<rect x="-148.1" y="369.1" class="st5" width="2" height="5.7"/>
<path class="st0" d="M-208.5,355.3l28,14.7c0.2,0.1,0.3,0.4,0.2,0.7l0,0c-0.1,0.2-0.4,0.3-0.7,0.2l-28-14.7
	c-0.2-0.1-0.3-0.4-0.2-0.7l0,0C-209.1,355.3-208.8,355.2-208.5,355.3z"/>
<path class="st0" d="M-178.7,370.2l0.9,0.5c0.6,0.3,0.8,1.1,0.5,1.7l0,0c-0.3,0.6-1.1,0.8-1.7,0.5l-0.9-0.5
	c-0.6-0.3-0.8-1.1-0.5-1.7h0C-180,370.1-179.3,369.9-178.7,370.2z"/>
<path class="st0" d="M-193.9,341.2l20.5,24.1c0.2,0.2,0.2,0.5-0.1,0.7l0,0c-0.2,0.2-0.5,0.1-0.7-0.1l-20.5-24.1
	c-0.2-0.2-0.2-0.5,0.1-0.7l0,0C-194.4,340.9-194.1,341-193.9,341.2z"/>
<path class="st0" d="M-171.7,366.1l0.6,0.8c0.4,0.5,0.4,1.3-0.1,1.7l0,0c-0.5,0.4-1.3,0.4-1.7-0.1l-0.6-0.8
	c-0.4-0.5-0.4-1.3,0.1-1.7h0C-172.9,365.5-172.1,365.6-171.7,366.1z"/>
<path class="st5" d="M-197.9,361.3c9.4-5.5,18.9-5.1,22.2-4.9c9.5,0.6,24.9,4.7,27.3,13.9c0.1,0.5,0.2,1.1,0.3,1.6"/>
<path class="st5" d="M-153.1,381c-9.1,6.8-19,7.1-22.8,7.2c-5.9,0.1-15.6-0.9-22.1-4.7"/>
<circle class="st0" cx="-176.8" cy="388.1" r="0.8"/>
<circle class="st0" cx="-176.8" cy="356.3" r="0.8"/>
<circle class="st0" cx="-148" cy="372.1" r="0.8"/>
<circle class="st0" cx="-206.6" cy="371.5" r="0.8"/>
<circle class="st0" cx="-195.6" cy="384.5" r="0.8"/>
<circle class="st0" cx="-159.8" cy="359.6" r="0.8"/>
<circle class="st0" cx="-156.4" cy="383.2" r="0.8"/>
<circle class="st0" cx="-196.1" cy="359.9" r="0.8"/>
<path class="st0" d="M-153.1,381c2.8-2.4,4.6-5.8,5.1-9.5"/>
<path class="st5" d="M-197.9,383.5c-2.6-1.4-4.8-3.5-6.4-6c-1.1-1.8-1.9-3.9-2.3-6c0.7-2.2,1.8-4.3,3.3-6.1c2-2.4,4.5-4.2,7.3-5.4"
	/>
<path class="st6" d="M-248.5,393l-0.2-33.5c0-0.3,0.3-0.5,0.6-0.5l0,0c0.3,0,0.6,0.2,0.6,0.5l0.2,33.5c0,0.3-0.3,0.5-0.6,0.5l0,0
	C-248.2,393.5-248.5,393.3-248.5,393z"/>
<path class="st7" d="M-249.2,357.2l0-1.2c0-0.8,0.5-1.5,1.2-1.5h0c0.7,0,1.2,0.7,1.2,1.5l0,1.2c0,0.8-0.5,1.5-1.2,1.5h0
	C-248.7,358.7-249.2,358-249.2,357.2z"/>
</svg>
