<?xml version="1.0" encoding="utf-8"?>
<!-- Generator: Adobe Illustrator 19.0.0, SVG Export Plug-In . SVG Version: 6.00 Build 0)  -->
<svg version="1.1" id="Layer_1" xmlns="http://www.w3.org/2000/svg" xmlns:xlink="http://www.w3.org/1999/xlink" x="0px" y="0px"
	 viewBox="-327 339.9 328.1 70.8" style="enable-background:new -327 339.9 328.1 70.8;" xml:space="preserve">
<style type="text/css">
	.st0{fill:#FAFBE9;stroke:#FFFFFF;stroke-miterlimit:10;}
	.st1{fill:#FFFFFF;}
	.st2{font-family:'ArialMT';}
	.st3{font-size:58.1565px;}
	.st4{font-size:64.7549px;}
	.st5{fill:none;stroke:#FFFFFF;stroke-miterlimit:10;}
	.st6{fill:#F6FAEC;stroke:#231F20;stroke-miterlimit:10;}
	.st7{fill:none;stroke:#000000;stroke-miterlimit:10;}
</style>
<title>shwiftysvg</title>
<path class="st0" d="M-184.5,395.6v13.8"/>
<line class="st0" x1="-155.5" y1="409.4" x2="-185" y2="409.4"/>
<line class="st0" x1="-125.8" y1="409.4" x2="-155.4" y2="409.4"/>
<line class="st0" x1="-185" y1="395.6" x2="-155.5" y2="395.6"/>
<path class="st0" d="M-126.4,369.2c0.7,13.5,0.8,27.1,0.4,40.6"/>
<text transform="matrix(0.6022 0 0 1 -325.75 395.6417)" class="st1 st2 st3">Schw fty</text>
<text transform="matrix(0.6202 0 0 1 -116.9968 395.8767)" class="st1 st2 st4">r</text>
<text transform="matrix(0.6202 0 0 1 -103.9567 395.8767)" class="st1 st2 st4">o</text>
<text transform="matrix(0.6202 0 0 1 -81.862 395.8767)" class="st1 st2 st4">o</text>
<text transform="matrix(0.6202 0 0 1 -60.0544 395.8767)" class="st1 st2 st4">v</text>
<text transform="matrix(0.6202 0 0 1 -41.1355 395.8767)" class="st1 st2 st4">es</text>
<rect x="-126.4" y="369.4" class="st5" width="2" height="5.7"/>
<path class="st0" d="M-186.8,355.7l28,14.7c0.2,0.1,0.3,0.4,0.2,0.7l0,0c-0.1,0.2-0.4,0.3-0.7,0.2l-28-14.7
	c-0.2-0.1-0.3-0.4-0.2-0.7l0,0C-187.4,355.6-187.1,355.5-186.8,355.7z"/>
<path class="st0" d="M-156.9,370.5l0.9,0.5c0.6,0.3,0.8,1.1,0.5,1.7l0,0c-0.3,0.6-1.1,0.8-1.7,0.5l-0.9-0.5
	c-0.6-0.3-0.8-1.1-0.5-1.7l0,0C-158.3,370.4-157.6,370.2-156.9,370.5z"/>
<path class="st0" d="M-172.2,341.5l20.5,24.1c0.2,0.2,0.2,0.5-0.1,0.7l0,0c-0.2,0.2-0.5,0.1-0.7-0.1l-20.5-24.1
	c-0.2-0.2-0.2-0.5,0.1-0.7l0,0C-172.7,341.3-172.4,341.3-172.2,341.5z"/>
<path class="st0" d="M-150,366.4l0.6,0.8c0.4,0.5,0.4,1.3-0.1,1.7h0c-0.5,0.4-1.3,0.4-1.7-0.1l-0.6-0.8c-0.4-0.5-0.4-1.3,0.1-1.7
	l0,0C-151.2,365.8-150.4,365.9-150,366.4z"/>
<path class="st5" d="M-176.2,361.6c9.4-5.5,18.9-5.1,22.2-4.9c9.5,0.6,24.9,4.7,27.3,13.9c0.1,0.5,0.2,1.1,0.3,1.6"/>
<path class="st5" d="M-131.4,381.3c-9.1,6.8-19,7.1-22.8,7.2c-5.9,0.1-15.6-0.9-22.1-4.7"/>
<circle class="st0" cx="-155.1" cy="388.4" r="0.8"/>
<circle class="st0" cx="-155.1" cy="356.6" r="0.8"/>
<circle class="st0" cx="-126.3" cy="372.4" r="0.8"/>
<circle class="st0" cx="-184.9" cy="371.8" r="0.8"/>
<circle class="st0" cx="-173.9" cy="384.8" r="0.8"/>
<circle class="st0" cx="-138.1" cy="359.9" r="0.8"/>
<circle class="st0" cx="-134.7" cy="383.6" r="0.8"/>
<circle class="st0" cx="-174.3" cy="360.3" r="0.8"/>
<path class="st6" d="M-235.6,394.6l-0.2-31.6c0-0.3,0.2-0.5,0.5-0.5l0,0c0.3,0,0.5,0.2,0.5,0.5l0.2,31.6c0,0.3-0.2,0.5-0.5,0.5l0,0
	C-235.4,395.1-235.6,394.9-235.6,394.6z"/>
<path class="st7" d="M-236.5,361l0-1c0-0.7,0.5-1.2,1.2-1.2h0c0.7,0,1.2,0.5,1.2,1.2l0,1c0,0.7-0.5,1.2-1.2,1.2h0
	C-235.9,362.3-236.5,361.7-236.5,361z"/>
<path class="st0" d="M-131.4,381.3c2.8-2.4,4.6-5.8,5-9.5"/>
<path class="st5" d="M-176.2,383.8c-2.6-1.4-4.8-3.5-6.4-6c-1.1-1.8-1.9-3.9-2.3-6c0.7-2.2,1.8-4.3,3.3-6.1c2-2.4,4.5-4.2,7.3-5.4"
	/>
</svg>
